<svg id="visual" viewBox="0 0 600 320" width="600" height="320" xmlns="http://www.w3.org/2000/svg" xmlns:xlink="http://www.w3.org/1999/xlink" version="1.1"><rect width="600" height="320" fill="#fee9b2"></rect><g><g transform="translate(245 202)"><path d="M7.7 6.9C0.7 16.5 -20.6 20.3 -24.2 12.6C-27.9 4.8 -13.9 -14.6 -3.3 -16.5C7.3 -18.4 14.7 -2.8 7.7 6.9Z" fill="#fbd1b7"></path></g><g transform="translate(365 180)"><path d="M22.4 9.7C18.7 19.4 -1.8 16.1 -8.3 4.9C-14.9 -6.4 -7.4 -25.8 2.8 -24.1C13.1 -22.5 26.2 0.1 22.4 9.7Z" fill="#fbd1b7"></path></g><g transform="translate(114 70)"><path d="M8.8 3.2C2.9 15.3 -16.2 17.9 -19.9 7C-23.6 -3.8 -11.8 -28.1 -2.2 -29.4C7.4 -30.7 14.7 -9 8.8 3.2Z" fill="#fbd1b7"></path></g><g transform="translate(488 238)"><path d="M26.3 13.5C22.6 21.7 0.1 17.3 -7.4 6.9C-14.9 -3.4 -7.5 -19.8 3.8 -17.7C15 -15.5 30 5.3 26.3 13.5Z" fill="#fbd1b7"></path></g><g transform="translate(511 118)"><path d="M11.8 7.1C5.1 18.4 -17.5 20.8 -22.1 10.7C-26.7 0.6 -13.4 -21.9 -2.1 -23.1C9.3 -24.2 18.5 -4.1 11.8 7.1Z" fill="#fbd1b7"></path></g><g transform="translate(275 69)"><path d="M23.5 13.4C20.7 18.3 2.1 13.9 -4.4 6.8C-11 -0.3 -5.5 -10 3.8 -7.8C13.1 -5.6 26.2 8.5 23.5 13.4Z" fill="#fbd1b7"></path></g><g transform="translate(86 233)"><path d="M22.8 18.4C14.5 27.6 -17.8 28.3 -25.6 19.4C-33.4 10.5 -16.7 -8 -0.6 -8.3C15.6 -8.6 31.2 9.2 22.8 18.4Z" fill="#fbd1b7"></path></g></g></svg>